<?xml version="1.0" encoding="UTF-8" standalone="no"?>
<!-- Generator: Adobe Illustrator 22.0.1, SVG Export Plug-In . SVG Version: 6.00 Build 0)  -->

<svg
   xmlns:dc="http://purl.org/dc/elements/1.1/"
   xmlns:cc="http://creativecommons.org/ns#"
   xmlns:rdf="http://www.w3.org/1999/02/22-rdf-syntax-ns#"
   xmlns:svg="http://www.w3.org/2000/svg"
   xmlns="http://www.w3.org/2000/svg"
   xmlns:sodipodi="http://sodipodi.sourceforge.net/DTD/sodipodi-0.dtd"
   xmlns:inkscape="http://www.inkscape.org/namespaces/inkscape"
   version="1.1"
   id="Layer_4"
   x="0px"
   y="0px"
   viewBox="0 0 792 612"
   style="enable-background:new 0 0 792 612;"
   xml:space="preserve"
   sodipodi:docname="logo.svg"
   inkscape:version="0.92.2 2405546, 2018-03-11"><metadata
   id="metadata87"><rdf:RDF><cc:Work
       rdf:about=""><dc:format>image/svg+xml</dc:format><dc:type
         rdf:resource="http://purl.org/dc/dcmitype/StillImage" /></cc:Work></rdf:RDF></metadata><defs
   id="defs85">
	
	
	
	
	
	
</defs><sodipodi:namedview
   pagecolor="#ffffff"
   bordercolor="#666666"
   borderopacity="1"
   objecttolerance="10"
   gridtolerance="10"
   guidetolerance="10"
   inkscape:pageopacity="0"
   inkscape:pageshadow="2"
   inkscape:window-width="1920"
   inkscape:window-height="1062"
   id="namedview83"
   showgrid="false"
   inkscape:zoom="1.0907007"
   inkscape:cx="288.33191"
   inkscape:cy="270.57088"
   inkscape:window-x="3840"
   inkscape:window-y="0"
   inkscape:window-maximized="1"
   inkscape:current-layer="Layer_4" />

<g
   id="g32"
   transform="translate(-0.91684184,20.170521)">
	<path
   style="clip-rule:evenodd;fill:#ffe400;fill-rule:evenodd"
   d="m 630.135,278.867 c -0.158,1.272 0.529,1.694 0.605,2.728 -0.538,0.27 -0.769,0.847 -1.815,0.607 -0.403,-0.914 -0.982,-1.647 -0.911,-3.032 0.957,0.147 1.071,-0.547 2.121,-0.303 z"
   id="path4"
   inkscape:connector-curvature="0" />
	<path
   style="fill:#ffe400"
   d="m 164.754,271.807 -40.054,-16.03 7.768,-19.416 c 1.749,-4.37 3.975,-7.231 6.684,-8.588 2.711,-1.357 5.984,-1.266 9.831,0.272 2.448,0.979 4.278,2.308 5.504,3.985 1.217,1.678 1.745,3.598 1.573,5.758 1.316,-1.493 2.754,-2.354 4.314,-2.58 1.563,-0.226 3.71,0.142 6.437,1.107 l 4.795,1.731 c 0.039,0.012 0.093,0.036 0.164,0.065 2.415,0.902 4.073,0.965 4.97,0.19 l 1.226,0.49 -3.612,9.027 c -0.679,0.067 -1.462,0.012 -2.349,-0.165 -0.885,-0.174 -1.91,-0.474 -3.067,-0.894 l -4.258,-1.579 c -2.517,-0.901 -4.382,-1.107 -5.591,-0.611 -1.209,0.494 -2.251,1.837 -3.127,4.032 l -3.495,8.729 15.585,6.236 z m -19.247,-17.261 3.875,-9.683 c 0.842,-2.102 1.035,-3.818 0.577,-5.148 -0.454,-1.329 -1.601,-2.36 -3.432,-3.092 -1.739,-0.696 -3.251,-0.744 -4.532,-0.143 -1.282,0.602 -2.303,1.855 -3.065,3.758 l -4.028,10.063 z"
   id="path6"
   inkscape:connector-curvature="0" />
	<path
   style="fill:#ffe400"
   d="m 166.175,214.955 c -5.735,-3.965 -9.204,-8.671 -10.41,-14.123 -1.206,-5.45 0.022,-10.824 3.686,-16.126 3.668,-5.3 8.268,-8.355 13.813,-9.164 5.544,-0.811 11.178,0.761 16.893,4.716 5.718,3.954 9.182,8.666 10.381,14.136 1.204,5.473 -0.026,10.859 -3.69,16.16 -3.666,5.299 -8.265,8.347 -13.797,9.139 -5.532,0.794 -11.156,-0.787 -16.876,-4.738 z m 5.145,-7.447 c 3.904,2.698 7.537,3.925 10.893,3.684 3.361,-0.242 6.116,-1.919 8.271,-5.036 2.177,-3.147 2.789,-6.345 1.843,-9.588 -0.953,-3.242 -3.379,-6.216 -7.282,-8.913 -3.904,-2.698 -7.539,-3.919 -10.911,-3.663 -3.373,0.259 -6.146,1.961 -8.32,5.111 -2.156,3.116 -2.755,6.285 -1.802,9.507 0.952,3.222 3.389,6.188 7.308,8.898 z"
   id="path8"
   inkscape:connector-curvature="0" />
	<path
   style="fill:#ffe400"
   d="m 231.264,169.329 -6.435,6.109 -11.073,-11.659 -29.998,-8.836 7.879,-7.483 19.499,7.133 -6.628,-19.356 7.352,-6.977 8.33,29.408 z"
   id="path10"
   inkscape:connector-curvature="0" />
	<path
   style="fill:#ffe400"
   d="m 233.479,112.815 8.591,-5.594 36.58,27.663 -7.803,5.083 -7.301,-5.839 -14.013,9.131 2.464,8.987 -7.83,5.1 z m 9.034,4.428 5.021,18.649 10.036,-6.539 z"
   id="path12"
   inkscape:connector-curvature="0" />
	<path
   style="fill:#ffe400"
   d="m 289.661,129.96 -16.181,-39.995 8.229,-3.329 13.192,32.609 19.524,-7.897 2.987,7.385 z"
   id="path14"
   inkscape:connector-curvature="0" />
	<path
   style="fill:#ffe400"
   d="m 353.468,110.178 -3.525,-43 20.844,-1.709 c 4.692,-0.384 8.249,0.335 10.668,2.154 2.423,1.82 3.803,4.792 4.142,8.918 0.213,2.627 -0.158,4.862 -1.113,6.703 -0.957,1.842 -2.438,3.169 -4.45,3.98 1.923,0.51 3.335,1.412 4.236,2.71 0.897,1.299 1.524,3.381 1.878,6.251 l 0.59,5.066 c 0.004,0.039 0.009,0.098 0.013,0.176 0.269,2.564 0.953,4.075 2.048,4.534 l 0.108,1.313 -9.692,0.795 c -0.361,-0.579 -0.662,-1.301 -0.899,-2.175 -0.236,-0.871 -0.425,-1.919 -0.565,-3.141 l -0.49,-4.517 c -0.314,-2.657 -0.961,-4.418 -1.943,-5.276 -0.984,-0.86 -2.651,-1.194 -5.003,-1 l -9.373,0.767 1.371,16.729 z m 6.862,-24.926 10.392,-0.849 c 2.255,-0.185 3.879,-0.78 4.865,-1.78 0.985,-1.002 1.398,-2.485 1.236,-4.451 -0.152,-1.87 -0.786,-3.24 -1.893,-4.122 -1.113,-0.878 -2.688,-1.233 -4.733,-1.068 l -10.8,0.886 z"
   id="path16"
   inkscape:connector-curvature="0" />
	<path
   style="fill:#ffe400"
   d="m 419.953,66.445 10.171,1.288 10.006,44.759 -9.237,-1.171 -1.793,-9.172 -16.592,-2.104 -3.935,8.448 -9.268,-1.173 z m 4.028,9.223 -8.237,17.467 11.885,1.504 z"
   id="path18"
   inkscape:connector-curvature="0" />
	<path
   style="fill:#ffe400"
   d="m 451.827,115.552 14.374,-40.678 8.754,3.094 6.642,33.784 9.874,-27.949 8.257,2.919 -14.376,40.678 -8.644,-3.055 -6.749,-33.824 -9.877,27.95 z"
   id="path20"
   inkscape:connector-curvature="0" />
	<path
   style="fill:#ffe400"
   d="m 529.191,146.871 c -2.516,0.972 -4.906,1.336 -7.17,1.103 -2.269,-0.238 -4.565,-1.096 -6.889,-2.574 -5.092,-3.235 -8.095,-7.623 -9.005,-13.165 -0.908,-5.539 0.465,-11.187 4.12,-16.938 3.686,-5.8 8.206,-9.441 13.565,-10.918 5.356,-1.478 10.658,-0.551 15.898,2.779 4.567,2.902 7.599,6.361 9.095,10.378 1.494,4.016 1.302,8.11 -0.583,12.276 l -7.64,-4.852 c 0.744,-2.19 0.716,-4.231 -0.082,-6.127 -0.796,-1.894 -2.341,-3.569 -4.632,-5.026 -3.051,-1.937 -6.151,-2.343 -9.31,-1.213 -3.159,1.13 -5.99,3.663 -8.491,7.604 -2.517,3.954 -3.575,7.629 -3.187,11.023 0.389,3.393 2.165,6.093 5.327,8.107 2.375,1.508 4.804,2.068 7.294,1.684 2.488,-0.387 4.696,-1.675 6.626,-3.875 l -8.254,-5.248 3.956,-6.229 15.08,9.583 -12.521,19.704 -5.017,-3.191 z"
   id="path22"
   inkscape:connector-curvature="0" />
	<path
   style="fill:#ffe400"
   d="m 544.725,165.335 30.323,-30.688 22.293,22.024 -5.269,5.335 -16.062,-15.871 -6.466,6.542 14.686,14.513 -5.188,5.25 -14.686,-14.512 -7.804,7.896 16.813,16.614 -5.6,5.667 z"
   id="path24"
   inkscape:connector-curvature="0" />
	<path
   style="fill:#ffe400"
   d="m 576.896,199.235 35.93,-23.887 11.578,17.416 c 2.605,3.92 3.697,7.378 3.276,10.378 -0.421,3 -2.356,5.646 -5.803,7.938 -2.194,1.459 -4.333,2.216 -6.403,2.272 -2.076,0.051 -3.955,-0.604 -5.636,-1.97 0.485,1.93 0.377,3.601 -0.323,5.013 -0.702,1.418 -2.222,2.974 -4.563,4.672 l -4.146,2.968 c -0.033,0.021 -0.083,0.055 -0.148,0.097 -2.114,1.476 -3.106,2.803 -2.977,3.985 l -1.1,0.729 -5.384,-8.099 c 0.332,-0.594 0.82,-1.208 1.468,-1.838 0.648,-0.628 1.474,-1.303 2.476,-2.015 l 3.72,-2.611 c 2.174,-1.563 3.396,-2.981 3.677,-4.255 0.278,-1.276 -0.239,-2.899 -1.547,-4.865 l -5.204,-7.831 -13.978,9.293 z m 25.135,-6.052 5.77,8.683 c 1.255,1.886 2.558,3.02 3.911,3.396 1.352,0.379 2.851,0.021 4.493,-1.07 1.563,-1.037 2.457,-2.253 2.69,-3.65 0.232,-1.399 -0.217,-2.951 -1.354,-4.659 l -6.001,-9.025 z"
   id="path26"
   inkscape:connector-curvature="0" />
	<path
   style="fill:#ffe400"
   d="m 614.84,235.346 3.243,8.136 c -2.072,1.182 -3.339,2.73 -3.809,4.642 -0.471,1.91 -0.145,4.271 0.976,7.083 0.956,2.393 2.103,4.028 3.438,4.903 1.338,0.875 2.84,0.98 4.51,0.314 2.429,-0.966 3.053,-5.263 1.865,-12.882 l -0.043,-0.268 c -0.038,-0.194 -0.087,-0.501 -0.146,-0.919 -0.672,-4.062 -0.82,-7.094 -0.44,-9.093 0.345,-1.78 1.134,-3.342 2.371,-4.699 1.232,-1.354 2.896,-2.447 4.982,-3.277 3.9,-1.556 7.416,-1.422 10.549,0.398 3.134,1.82 5.697,5.233 7.691,10.239 1.865,4.68 2.216,8.78 1.058,12.302 -1.162,3.522 -3.729,6.156 -7.697,7.907 l -3.153,-7.916 c 1.883,-0.919 3.063,-2.251 3.543,-4 0.48,-1.748 0.224,-3.862 -0.763,-6.347 -0.859,-2.16 -1.946,-3.657 -3.256,-4.488 -1.311,-0.836 -2.745,-0.943 -4.306,-0.32 -2.123,0.847 -2.803,3.755 -2.042,8.727 0.206,1.35 0.36,2.403 0.473,3.155 0.419,3.219 0.668,5.521 0.736,6.913 0.072,1.392 0.035,2.639 -0.112,3.749 -0.257,1.995 -0.972,3.7 -2.143,5.113 -1.169,1.411 -2.799,2.533 -4.883,3.365 -4.172,1.662 -7.967,1.545 -11.382,-0.351 -3.415,-1.898 -6.14,-5.404 -8.181,-10.52 -2.01,-5.043 -2.417,-9.462 -1.221,-13.262 1.199,-3.795 3.91,-6.666 8.142,-8.604 z"
   id="path28"
   inkscape:connector-curvature="0" />
	<path
   style="fill:#ffe400"
   d="m 634.558,279.048 c -0.334,-1.26 -0.935,-2.334 -1.805,-3.222 -0.87,-0.887 -1.926,-1.508 -3.163,-1.861 -0.67,-0.186 -1.328,-0.285 -1.981,-0.294 -0.651,-0.01 -1.302,0.069 -1.943,0.239 -0.917,0.243 -1.752,0.647 -2.501,1.212 -0.748,0.564 -1.366,1.262 -1.857,2.091 -0.508,0.856 -0.831,1.759 -0.966,2.712 -0.14,0.953 -0.087,1.898 0.16,2.837 0.245,0.919 0.654,1.762 1.235,2.529 0.578,0.766 1.291,1.4 2.125,1.899 0.826,0.5 1.715,0.818 2.66,0.945 0.946,0.128 1.896,0.064 2.855,-0.188 0.941,-0.251 1.791,-0.655 2.544,-1.216 0.754,-0.565 1.372,-1.256 1.854,-2.08 0.511,-0.856 0.832,-1.76 0.964,-2.714 0.135,-0.959 0.077,-1.919 -0.181,-2.889 z m -2.86,3.592 c -0.23,0.658 -0.716,1.086 -1.459,1.282 -0.515,0.135 -0.994,0.102 -1.44,-0.105 -0.442,-0.206 -0.803,-0.56 -1.076,-1.059 l -3.023,2.667 -0.557,-2.116 2.794,-2.331 -0.244,-0.938 -3.19,0.844 -0.501,-1.887 7.787,-2.06 0.808,3.053 c 0.294,1.11 0.325,1.994 0.101,2.65 z"
   id="path30"
   inkscape:connector-curvature="0" />
</g>

<polygon
   id="polygon68"
   points="390.298,139.709 352.24,310.364 179.011,349 349.664,387.058 388.3,560.291 426.359,389.634 599.592,351 585.41,347.837 428.933,312.94 " />
<ellipse
   style="opacity:1;fill:none;fill-opacity:1;fill-rule:nonzero;stroke:#dd0000;stroke-width:26.39999962;stroke-linecap:round;stroke-linejoin:round;stroke-miterlimit:4;stroke-dasharray:none;stroke-dashoffset:0;stroke-opacity:1"
   id="path4599"
   cx="387.82413"
   cy="317.69376"
   rx="287.88837"
   ry="256.71576" /><text
   xml:space="preserve"
   style="font-style:normal;font-weight:normal;font-size:84.93162537px;line-height:53.08226395px;font-family:sans-serif;letter-spacing:0px;word-spacing:0px;fill:#d4aa00;fill-opacity:1;stroke:none;stroke-width:1px;stroke-linecap:butt;stroke-linejoin:miter;stroke-opacity:1"
   x="263.11411"
   y="9.1935263"
   id="text4625"
   transform="matrix(0.73875752,0.66454883,-0.6098128,0.80506742,0,0)"><tspan
     sodipodi:role="line"
     id="tspan4623"
     x="263.11411"
     y="9.1935263"
     style="stroke-width:1px">Placeholder</tspan></text>

</svg>
